Coordinates
version=1
nRows=27
nColumns=12
inDegrees=yes

Units are S.I. units (second, meters, Newtons, ...)
Angles are in degrees

endheader
time	SC_y	SC_z	SC_x	AC_y	AC_z	AC_x	GH_y	GH_z	GH_yy	EL_x	PS_y
       0.0              -19.99          22.24          4.343          57.79         -2.093          18.67         -70.63          69.34          23.41          79.69          110.1
   0.04031              -19.99          22.24          4.353          57.79         -2.092          18.67         -70.61          69.33          23.42          79.68          110.1
   0.08062               -20.0          22.23          4.363          57.79         -2.091          18.67         -70.59          69.33          23.43          79.68          110.1
    0.1209               -20.0          22.23          4.375          57.78          -2.09          18.67         -70.57          69.32          23.44          79.68          110.1
    0.1612              -20.01          22.23          4.386          57.78          -2.09          18.66         -70.54          69.31          23.45          79.67          110.1
    0.2015              -20.02          22.22          4.399          57.78         -2.089          18.66         -70.51          69.31          23.46          79.67          110.1
    0.2419              -20.02          22.22          4.412          57.77         -2.088          18.66         -70.48           69.3          23.48          79.67          110.0
    0.2822              -20.03          22.21          4.427          57.77         -2.087          18.65         -70.45          69.29          23.49          79.66          110.0
    0.3225              -20.04          22.21          4.442          57.76         -2.086          18.65         -70.42          69.28          23.51          79.66          110.0
    0.3628              -20.05           22.2          4.459          57.75         -2.085          18.65         -70.38          69.27          23.52          79.65          110.0
    0.4031              -20.05           22.2          4.477          57.75         -2.084          18.64         -70.34          69.26          23.54          79.65          110.0
    0.4434              -20.06          22.19          4.496          57.74         -2.082          18.64          -70.3          69.25          23.56          79.64          110.0
    0.4837              -20.07          22.19          4.516          57.73         -2.081          18.63         -70.25          69.23          23.58          79.64          109.9
     0.524              -20.09          22.18          4.539          57.73         -2.079          18.63          -70.2          69.22           23.6          79.63          109.9
    0.5643               -20.1          22.17          4.563          57.72         -2.078          18.62         -70.15           69.2          23.63          79.62          109.9
    0.6046              -20.11          22.16          4.589          57.71         -2.076          18.61         -70.09          69.19          23.65          79.61          109.8
    0.6449              -20.13          22.16          4.617           57.7         -2.074          18.61         -70.03          69.17          23.68          79.61          109.8
    0.6853              -20.14          22.15          4.648          57.69         -2.072           18.6         -69.96          69.15          23.71           79.6          109.8
    0.7256              -20.16          22.14          4.682          57.68          -2.07          18.59         -69.89          69.13          23.74          79.59          109.7
    0.7659              -20.18          22.13          4.719          57.66         -2.067          18.58         -69.81          69.11          23.78          79.58          109.7
    0.8062               -20.2          22.11           4.76          57.65         -2.065          18.57         -69.72          69.08          23.82          79.57          109.6
    0.8465              -20.22           22.1          4.804          57.63         -2.062          18.56         -69.62          69.05          23.87          79.55          109.6
    0.8868              -20.25          22.09          4.854          57.62         -2.058          18.55         -69.51          69.02          23.92          79.54          109.5
    0.9271              -20.27          22.07          4.908           57.6         -2.055          18.53         -69.39          68.99          23.97          79.52          109.5
    0.9674               -20.3          22.05          4.969          57.58         -2.051          18.52         -69.26          68.95          24.03           79.5          109.4
     1.008              -20.34          22.03          5.037          57.55         -2.046           18.5         -69.11          68.91           24.1          79.49          109.3
     1.048              -20.38          22.01          5.113          57.53         -2.041          18.48         -68.94          68.86          24.17          79.46          109.2
